<?xml version="1.0" encoding="UTF-8"?>
<svg xmlns="http://www.w3.org/2000/svg" xmlns:xlink="http://www.w3.org/1999/xlink" width="450pt" height="250pt" viewBox="0 0 450 250" version="1.1">
<g id="surface80">
<path style="fill:none;stroke-width:4.25;stroke-linecap:butt;stroke-linejoin:miter;stroke:rgb(58.4%,34.5%,69.8%);stroke-opacity:1;stroke-miterlimit:10;" d="M -57.5 346.410156 C -57.5 369.882813 -76.527344 388.910156 -100 388.910156 C -123.472656 388.910156 -142.5 369.882813 -142.5 346.410156 C -142.5 322.9375 -123.472656 303.910156 -100 303.910156 C -76.527344 303.910156 -57.5 322.9375 -57.5 346.410156 "/>
<path style="fill:none;stroke-width:4.25;stroke-linecap:butt;stroke-linejoin:miter;stroke:rgb(58.4%,34.5%,69.8%);stroke-opacity:1;stroke-miterlimit:10;" d="M -57.5 173.207031 C -57.5 196.675781 -76.527344 215.707031 -100 215.707031 C -123.472656 215.707031 -142.5 196.675781 -142.5 173.207031 C -142.5 149.734375 -123.472656 130.707031 -100 130.707031 C -76.527344 130.707031 -57.5 149.734375 -57.5 173.207031 "/>
<path style="fill:none;stroke-width:4.25;stroke-linecap:butt;stroke-linejoin:miter;stroke:rgb(25.1%,38.8%,84.7%);stroke-opacity:1;stroke-miterlimit:10;" d="M -33 259.808594 C -33 269.195313 -40.609375 276.808594 -50 276.808594 C -59.390625 276.808594 -67 269.195313 -67 259.808594 C -67 250.417969 -59.390625 242.808594 -50 242.808594 C -40.609375 242.808594 -33 250.417969 -33 259.808594 "/>
<path style="fill:none;stroke-width:4.25;stroke-linecap:butt;stroke-linejoin:miter;stroke:rgb(79.6%,23.5%,20%);stroke-opacity:1;stroke-miterlimit:10;" d="M -24.5 259.808594 C -24.5 273.890625 -35.917969 285.308594 -50 285.308594 C -64.082031 285.308594 -75.5 273.890625 -75.5 259.808594 C -75.5 245.722656 -64.082031 234.308594 -50 234.308594 C -35.917969 234.308594 -24.5 245.722656 -24.5 259.808594 "/>
<path style="fill:none;stroke-width:4.25;stroke-linecap:butt;stroke-linejoin:miter;stroke:rgb(22%,59.6%,14.9%);stroke-opacity:1;stroke-miterlimit:10;" d="M -16 259.808594 C -16 278.585938 -31.222656 293.808594 -50 293.808594 C -68.777344 293.808594 -84 278.585938 -84 259.808594 C -84 241.03125 -68.777344 225.808594 -50 225.808594 C -31.222656 225.808594 -16 241.03125 -16 259.808594 "/>
<path style="fill:none;stroke-width:4.25;stroke-linecap:butt;stroke-linejoin:miter;stroke:rgb(58.4%,34.5%,69.8%);stroke-opacity:1;stroke-miterlimit:10;" d="M -7.5 259.808594 C -7.5 283.28125 -26.527344 302.308594 -50 302.308594 C -73.472656 302.308594 -92.5 283.28125 -92.5 259.808594 C -92.5 236.335938 -73.472656 217.308594 -50 217.308594 C -26.527344 217.308594 -7.5 236.335938 -7.5 259.808594 "/>
<path style="fill:none;stroke-width:4.25;stroke-linecap:butt;stroke-linejoin:miter;stroke:rgb(58.4%,34.5%,69.8%);stroke-opacity:1;stroke-miterlimit:10;" d="M 42.5 346.410156 C 42.5 369.882813 23.472656 388.910156 0 388.910156 C -23.472656 388.910156 -42.5 369.882813 -42.5 346.410156 C -42.5 322.9375 -23.472656 303.910156 0 303.910156 C 23.472656 303.910156 42.5 322.9375 42.5 346.410156 "/>
<path style="fill:none;stroke-width:4.25;stroke-linecap:butt;stroke-linejoin:miter;stroke:rgb(58.4%,34.5%,69.8%);stroke-opacity:1;stroke-miterlimit:10;" d="M -57.5 0 C -57.5 23.472656 -76.527344 42.5 -100 42.5 C -123.472656 42.5 -142.5 23.472656 -142.5 0 C -142.5 -23.472656 -123.472656 -42.5 -100 -42.5 C -76.527344 -42.5 -57.5 -23.472656 -57.5 0 "/>
<path style="fill:none;stroke-width:4.25;stroke-linecap:butt;stroke-linejoin:miter;stroke:rgb(25.1%,38.8%,84.7%);stroke-opacity:1;stroke-miterlimit:10;" d="M -33 86.601563 C -33 95.992188 -40.609375 103.601563 -50 103.601563 C -59.390625 103.601563 -67 95.992188 -67 86.601563 C -67 77.214844 -59.390625 69.601563 -50 69.601563 C -40.609375 69.601563 -33 77.214844 -33 86.601563 "/>
<path style="fill:none;stroke-width:4.25;stroke-linecap:butt;stroke-linejoin:miter;stroke:rgb(79.6%,23.5%,20%);stroke-opacity:1;stroke-miterlimit:10;" d="M -24.5 86.601563 C -24.5 100.6875 -35.917969 112.101563 -50 112.101563 C -64.082031 112.101563 -75.5 100.6875 -75.5 86.601563 C -75.5 72.519531 -64.082031 61.101563 -50 61.101563 C -35.917969 61.101563 -24.5 72.519531 -24.5 86.601563 "/>
<path style="fill:none;stroke-width:4.25;stroke-linecap:butt;stroke-linejoin:miter;stroke:rgb(22%,59.6%,14.9%);stroke-opacity:1;stroke-miterlimit:10;" d="M -16 86.601563 C -16 105.378906 -31.222656 120.601563 -50 120.601563 C -68.777344 120.601563 -84 105.378906 -84 86.601563 C -84 67.824219 -68.777344 52.601563 -50 52.601563 C -31.222656 52.601563 -16 67.824219 -16 86.601563 "/>
<path style="fill:none;stroke-width:4.25;stroke-linecap:butt;stroke-linejoin:miter;stroke:rgb(58.4%,34.5%,69.8%);stroke-opacity:1;stroke-miterlimit:10;" d="M -7.5 86.601563 C -7.5 110.074219 -26.527344 129.101563 -50 129.101563 C -73.472656 129.101563 -92.5 110.074219 -92.5 86.601563 C -92.5 63.128906 -73.472656 44.101563 -50 44.101563 C -26.527344 44.101563 -7.5 63.128906 -7.5 86.601563 "/>
<path style="fill:none;stroke-width:4.25;stroke-linecap:butt;stroke-linejoin:miter;stroke:rgb(25.1%,38.8%,84.7%);stroke-opacity:1;stroke-miterlimit:10;" d="M 17 173.207031 C 17 182.59375 9.390625 190.207031 0 190.207031 C -9.390625 190.207031 -17 182.59375 -17 173.207031 C -17 163.816406 -9.390625 156.207031 0 156.207031 C 9.390625 156.207031 17 163.816406 17 173.207031 "/>
<path style="fill:none;stroke-width:4.25;stroke-linecap:butt;stroke-linejoin:miter;stroke:rgb(79.6%,23.5%,20%);stroke-opacity:1;stroke-miterlimit:10;" d="M 25.5 173.207031 C 25.5 187.289063 14.082031 198.707031 0 198.707031 C -14.082031 198.707031 -25.5 187.289063 -25.5 173.207031 C -25.5 159.121094 -14.082031 147.707031 0 147.707031 C 14.082031 147.707031 25.5 159.121094 25.5 173.207031 "/>
<path style="fill:none;stroke-width:4.25;stroke-linecap:butt;stroke-linejoin:miter;stroke:rgb(22%,59.6%,14.9%);stroke-opacity:1;stroke-miterlimit:10;" d="M 34 173.207031 C 34 191.984375 18.777344 207.207031 0 207.207031 C -18.777344 207.207031 -34 191.984375 -34 173.207031 C -34 154.425781 -18.777344 139.207031 0 139.207031 C 18.777344 139.207031 34 154.425781 34 173.207031 "/>
<path style="fill:none;stroke-width:4.25;stroke-linecap:butt;stroke-linejoin:miter;stroke:rgb(58.4%,34.5%,69.8%);stroke-opacity:1;stroke-miterlimit:10;" d="M 42.5 173.207031 C 42.5 196.675781 23.472656 215.707031 0 215.707031 C -23.472656 215.707031 -42.5 196.675781 -42.5 173.207031 C -42.5 149.734375 -23.472656 130.707031 0 130.707031 C 23.472656 130.707031 42.5 149.734375 42.5 173.207031 "/>
<path style="fill:none;stroke-width:4.25;stroke-linecap:butt;stroke-linejoin:miter;stroke:rgb(25.1%,38.8%,84.7%);stroke-opacity:1;stroke-miterlimit:10;" d="M 67 259.808594 C 67 269.195313 59.390625 276.808594 50 276.808594 C 40.609375 276.808594 33 269.195313 33 259.808594 C 33 250.417969 40.609375 242.808594 50 242.808594 C 59.390625 242.808594 67 250.417969 67 259.808594 "/>
<path style="fill:none;stroke-width:4.25;stroke-linecap:butt;stroke-linejoin:miter;stroke:rgb(79.6%,23.5%,20%);stroke-opacity:1;stroke-miterlimit:10;" d="M 75.5 259.808594 C 75.5 273.890625 64.082031 285.308594 50 285.308594 C 35.917969 285.308594 24.5 273.890625 24.5 259.808594 C 24.5 245.722656 35.917969 234.308594 50 234.308594 C 64.082031 234.308594 75.5 245.722656 75.5 259.808594 "/>
<path style="fill:none;stroke-width:4.25;stroke-linecap:butt;stroke-linejoin:miter;stroke:rgb(22%,59.6%,14.9%);stroke-opacity:1;stroke-miterlimit:10;" d="M 84 259.808594 C 84 278.585938 68.777344 293.808594 50 293.808594 C 31.222656 293.808594 16 278.585938 16 259.808594 C 16 241.03125 31.222656 225.808594 50 225.808594 C 68.777344 225.808594 84 241.03125 84 259.808594 "/>
<path style="fill:none;stroke-width:4.25;stroke-linecap:butt;stroke-linejoin:miter;stroke:rgb(58.4%,34.5%,69.8%);stroke-opacity:1;stroke-miterlimit:10;" d="M 92.5 259.808594 C 92.5 283.28125 73.472656 302.308594 50 302.308594 C 26.527344 302.308594 7.5 283.28125 7.5 259.808594 C 7.5 236.335938 26.527344 217.308594 50 217.308594 C 73.472656 217.308594 92.5 236.335938 92.5 259.808594 "/>
<path style="fill:none;stroke-width:4.25;stroke-linecap:butt;stroke-linejoin:miter;stroke:rgb(58.4%,34.5%,69.8%);stroke-opacity:1;stroke-miterlimit:10;" d="M 142.5 346.410156 C 142.5 369.882813 123.472656 388.910156 100 388.910156 C 76.527344 388.910156 57.5 369.882813 57.5 346.410156 C 57.5 322.9375 76.527344 303.910156 100 303.910156 C 123.472656 303.910156 142.5 322.9375 142.5 346.410156 "/>
<path style="fill:none;stroke-width:4.25;stroke-linecap:butt;stroke-linejoin:miter;stroke:rgb(22%,59.6%,14.9%);stroke-opacity:1;stroke-miterlimit:10;" d="M -16 -86.601563 C -16 -67.824219 -31.222656 -52.601563 -50 -52.601563 C -68.777344 -52.601563 -84 -67.824219 -84 -86.601563 C -84 -105.378906 -68.777344 -120.601563 -50 -120.601563 C -31.222656 -120.601563 -16 -105.378906 -16 -86.601563 "/>
<path style="fill:none;stroke-width:4.25;stroke-linecap:butt;stroke-linejoin:miter;stroke:rgb(58.4%,34.5%,69.8%);stroke-opacity:1;stroke-miterlimit:10;" d="M -7.5 -86.601563 C -7.5 -63.128906 -26.527344 -44.101563 -50 -44.101563 C -73.472656 -44.101563 -92.5 -63.128906 -92.5 -86.601563 C -92.5 -110.074219 -73.472656 -129.101563 -50 -129.101563 C -26.527344 -129.101563 -7.5 -110.074219 -7.5 -86.601563 "/>
<path style="fill:none;stroke-width:4.25;stroke-linecap:butt;stroke-linejoin:miter;stroke:rgb(25.1%,38.8%,84.7%);stroke-opacity:1;stroke-miterlimit:10;" d="M 17 0 C 17 9.390625 9.390625 17 0 17 C -9.390625 17 -17 9.390625 -17 0 C -17 -9.390625 -9.390625 -17 0 -17 C 9.390625 -17 17 -9.390625 17 0 "/>
<path style="fill:none;stroke-width:4.25;stroke-linecap:butt;stroke-linejoin:miter;stroke:rgb(79.6%,23.5%,20%);stroke-opacity:1;stroke-miterlimit:10;" d="M 25.5 0 C 25.5 14.082031 14.082031 25.5 0 25.5 C -14.082031 25.5 -25.5 14.082031 -25.5 0 C -25.5 -14.082031 -14.082031 -25.5 0 -25.5 C 14.082031 -25.5 25.5 -14.082031 25.5 0 "/>
<path style="fill:none;stroke-width:4.25;stroke-linecap:butt;stroke-linejoin:miter;stroke:rgb(22%,59.6%,14.9%);stroke-opacity:1;stroke-miterlimit:10;" d="M 34 0 C 34 18.777344 18.777344 34 0 34 C -18.777344 34 -34 18.777344 -34 0 C -34 -18.777344 -18.777344 -34 0 -34 C 18.777344 -34 34 -18.777344 34 0 "/>
<path style="fill:none;stroke-width:4.25;stroke-linecap:butt;stroke-linejoin:miter;stroke:rgb(58.4%,34.5%,69.8%);stroke-opacity:1;stroke-miterlimit:10;" d="M 42.5 0 C 42.5 23.472656 23.472656 42.5 0 42.5 C -23.472656 42.5 -42.5 23.472656 -42.5 0 C -42.5 -23.472656 -23.472656 -42.5 0 -42.5 C 23.472656 -42.5 42.5 -23.472656 42.5 0 "/>
<path style="fill:none;stroke-width:4.25;stroke-linecap:butt;stroke-linejoin:miter;stroke:rgb(25.1%,38.8%,84.7%);stroke-opacity:1;stroke-miterlimit:10;" d="M 67 86.601563 C 67 95.992188 59.390625 103.601563 50 103.601563 C 40.609375 103.601563 33 95.992188 33 86.601563 C 33 77.214844 40.609375 69.601563 50 69.601563 C 59.390625 69.601563 67 77.214844 67 86.601563 "/>
<path style="fill:none;stroke-width:4.25;stroke-linecap:butt;stroke-linejoin:miter;stroke:rgb(79.6%,23.5%,20%);stroke-opacity:1;stroke-miterlimit:10;" d="M 75.5 86.601563 C 75.5 100.6875 64.082031 112.101563 50 112.101563 C 35.917969 112.101563 24.5 100.6875 24.5 86.601563 C 24.5 72.519531 35.917969 61.101563 50 61.101563 C 64.082031 61.101563 75.5 72.519531 75.5 86.601563 "/>
<path style="fill:none;stroke-width:4.25;stroke-linecap:butt;stroke-linejoin:miter;stroke:rgb(22%,59.6%,14.9%);stroke-opacity:1;stroke-miterlimit:10;" d="M 84 86.601563 C 84 105.378906 68.777344 120.601563 50 120.601563 C 31.222656 120.601563 16 105.378906 16 86.601563 C 16 67.824219 31.222656 52.601563 50 52.601563 C 68.777344 52.601563 84 67.824219 84 86.601563 "/>
<path style="fill:none;stroke-width:4.25;stroke-linecap:butt;stroke-linejoin:miter;stroke:rgb(58.4%,34.5%,69.8%);stroke-opacity:1;stroke-miterlimit:10;" d="M 92.5 86.601563 C 92.5 110.074219 73.472656 129.101563 50 129.101563 C 26.527344 129.101563 7.5 110.074219 7.5 86.601563 C 7.5 63.128906 26.527344 44.101563 50 44.101563 C 73.472656 44.101563 92.5 63.128906 92.5 86.601563 "/>
<path style="fill:none;stroke-width:4.25;stroke-linecap:butt;stroke-linejoin:miter;stroke:rgb(25.1%,38.8%,84.7%);stroke-opacity:1;stroke-miterlimit:10;" d="M 117 173.207031 C 117 182.59375 109.390625 190.207031 100 190.207031 C 90.609375 190.207031 83 182.59375 83 173.207031 C 83 163.816406 90.609375 156.207031 100 156.207031 C 109.390625 156.207031 117 163.816406 117 173.207031 "/>
<path style="fill:none;stroke-width:4.25;stroke-linecap:butt;stroke-linejoin:miter;stroke:rgb(79.6%,23.5%,20%);stroke-opacity:1;stroke-miterlimit:10;" d="M 125.5 173.207031 C 125.5 187.289063 114.082031 198.707031 100 198.707031 C 85.917969 198.707031 74.5 187.289063 74.5 173.207031 C 74.5 159.121094 85.917969 147.707031 100 147.707031 C 114.082031 147.707031 125.5 159.121094 125.5 173.207031 "/>
<path style="fill:none;stroke-width:4.25;stroke-linecap:butt;stroke-linejoin:miter;stroke:rgb(22%,59.6%,14.9%);stroke-opacity:1;stroke-miterlimit:10;" d="M 134 173.207031 C 134 191.984375 118.777344 207.207031 100 207.207031 C 81.222656 207.207031 66 191.984375 66 173.207031 C 66 154.425781 81.222656 139.207031 100 139.207031 C 118.777344 139.207031 134 154.425781 134 173.207031 "/>
<path style="fill:none;stroke-width:4.25;stroke-linecap:butt;stroke-linejoin:miter;stroke:rgb(58.4%,34.5%,69.8%);stroke-opacity:1;stroke-miterlimit:10;" d="M 142.5 173.207031 C 142.5 196.675781 123.472656 215.707031 100 215.707031 C 76.527344 215.707031 57.5 196.675781 57.5 173.207031 C 57.5 149.734375 76.527344 130.707031 100 130.707031 C 123.472656 130.707031 142.5 149.734375 142.5 173.207031 "/>
<path style="fill:none;stroke-width:4.25;stroke-linecap:butt;stroke-linejoin:miter;stroke:rgb(25.1%,38.8%,84.7%);stroke-opacity:1;stroke-miterlimit:10;" d="M 167 259.808594 C 167 269.195313 159.390625 276.808594 150 276.808594 C 140.609375 276.808594 133 269.195313 133 259.808594 C 133 250.417969 140.609375 242.808594 150 242.808594 C 159.390625 242.808594 167 250.417969 167 259.808594 "/>
<path style="fill:none;stroke-width:4.25;stroke-linecap:butt;stroke-linejoin:miter;stroke:rgb(79.6%,23.5%,20%);stroke-opacity:1;stroke-miterlimit:10;" d="M 175.5 259.808594 C 175.5 273.890625 164.082031 285.308594 150 285.308594 C 135.917969 285.308594 124.5 273.890625 124.5 259.808594 C 124.5 245.722656 135.917969 234.308594 150 234.308594 C 164.082031 234.308594 175.5 245.722656 175.5 259.808594 "/>
<path style="fill:none;stroke-width:4.25;stroke-linecap:butt;stroke-linejoin:miter;stroke:rgb(22%,59.6%,14.9%);stroke-opacity:1;stroke-miterlimit:10;" d="M 184 259.808594 C 184 278.585938 168.777344 293.808594 150 293.808594 C 131.222656 293.808594 116 278.585938 116 259.808594 C 116 241.03125 131.222656 225.808594 150 225.808594 C 168.777344 225.808594 184 241.03125 184 259.808594 "/>
<path style="fill:none;stroke-width:4.25;stroke-linecap:butt;stroke-linejoin:miter;stroke:rgb(58.4%,34.5%,69.8%);stroke-opacity:1;stroke-miterlimit:10;" d="M 192.5 259.808594 C 192.5 283.28125 173.472656 302.308594 150 302.308594 C 126.527344 302.308594 107.5 283.28125 107.5 259.808594 C 107.5 236.335938 126.527344 217.308594 150 217.308594 C 173.472656 217.308594 192.5 236.335938 192.5 259.808594 "/>
<path style="fill:none;stroke-width:4.25;stroke-linecap:butt;stroke-linejoin:miter;stroke:rgb(58.4%,34.5%,69.8%);stroke-opacity:1;stroke-miterlimit:10;" d="M 242.5 346.410156 C 242.5 369.882813 223.472656 388.910156 200 388.910156 C 176.527344 388.910156 157.5 369.882813 157.5 346.410156 C 157.5 322.9375 176.527344 303.910156 200 303.910156 C 223.472656 303.910156 242.5 322.9375 242.5 346.410156 "/>
<path style="fill:none;stroke-width:4.25;stroke-linecap:butt;stroke-linejoin:miter;stroke:rgb(22%,59.6%,14.9%);stroke-opacity:1;stroke-miterlimit:10;" d="M 84 -86.601563 C 84 -67.824219 68.777344 -52.601563 50 -52.601563 C 31.222656 -52.601563 16 -67.824219 16 -86.601563 C 16 -105.378906 31.222656 -120.601563 50 -120.601563 C 68.777344 -120.601563 84 -105.378906 84 -86.601563 "/>
<path style="fill:none;stroke-width:4.25;stroke-linecap:butt;stroke-linejoin:miter;stroke:rgb(58.4%,34.5%,69.8%);stroke-opacity:1;stroke-miterlimit:10;" d="M 92.5 -86.601563 C 92.5 -63.128906 73.472656 -44.101563 50 -44.101563 C 26.527344 -44.101563 7.5 -63.128906 7.5 -86.601563 C 7.5 -110.074219 26.527344 -129.101563 50 -129.101563 C 73.472656 -129.101563 92.5 -110.074219 92.5 -86.601563 "/>
<path style="fill:none;stroke-width:4.25;stroke-linecap:butt;stroke-linejoin:miter;stroke:rgb(25.1%,38.8%,84.7%);stroke-opacity:1;stroke-miterlimit:10;" d="M 117 0 C 117 9.390625 109.390625 17 100 17 C 90.609375 17 83 9.390625 83 0 C 83 -9.390625 90.609375 -17 100 -17 C 109.390625 -17 117 -9.390625 117 0 "/>
<path style="fill:none;stroke-width:4.25;stroke-linecap:butt;stroke-linejoin:miter;stroke:rgb(79.6%,23.5%,20%);stroke-opacity:1;stroke-miterlimit:10;" d="M 125.5 0 C 125.5 14.082031 114.082031 25.5 100 25.5 C 85.917969 25.5 74.5 14.082031 74.5 0 C 74.5 -14.082031 85.917969 -25.5 100 -25.5 C 114.082031 -25.5 125.5 -14.082031 125.5 0 "/>
<path style="fill:none;stroke-width:4.25;stroke-linecap:butt;stroke-linejoin:miter;stroke:rgb(22%,59.6%,14.9%);stroke-opacity:1;stroke-miterlimit:10;" d="M 134 0 C 134 18.777344 118.777344 34 100 34 C 81.222656 34 66 18.777344 66 0 C 66 -18.777344 81.222656 -34 100 -34 C 118.777344 -34 134 -18.777344 134 0 "/>
<path style="fill:none;stroke-width:4.25;stroke-linecap:butt;stroke-linejoin:miter;stroke:rgb(58.4%,34.5%,69.8%);stroke-opacity:1;stroke-miterlimit:10;" d="M 142.5 0 C 142.5 23.472656 123.472656 42.5 100 42.5 C 76.527344 42.5 57.5 23.472656 57.5 0 C 57.5 -23.472656 76.527344 -42.5 100 -42.5 C 123.472656 -42.5 142.5 -23.472656 142.5 0 "/>
<path style="fill:none;stroke-width:4.25;stroke-linecap:butt;stroke-linejoin:miter;stroke:rgb(25.1%,38.8%,84.7%);stroke-opacity:1;stroke-miterlimit:10;" d="M 167 86.601563 C 167 95.992188 159.390625 103.601563 150 103.601563 C 140.609375 103.601563 133 95.992188 133 86.601563 C 133 77.214844 140.609375 69.601563 150 69.601563 C 159.390625 69.601563 167 77.214844 167 86.601563 "/>
<path style="fill:none;stroke-width:4.25;stroke-linecap:butt;stroke-linejoin:miter;stroke:rgb(79.6%,23.5%,20%);stroke-opacity:1;stroke-miterlimit:10;" d="M 175.5 86.601563 C 175.5 100.6875 164.082031 112.101563 150 112.101563 C 135.917969 112.101563 124.5 100.6875 124.5 86.601563 C 124.5 72.519531 135.917969 61.101563 150 61.101563 C 164.082031 61.101563 175.5 72.519531 175.5 86.601563 "/>
<path style="fill:none;stroke-width:4.25;stroke-linecap:butt;stroke-linejoin:miter;stroke:rgb(22%,59.6%,14.9%);stroke-opacity:1;stroke-miterlimit:10;" d="M 184 86.601563 C 184 105.378906 168.777344 120.601563 150 120.601563 C 131.222656 120.601563 116 105.378906 116 86.601563 C 116 67.824219 131.222656 52.601563 150 52.601563 C 168.777344 52.601563 184 67.824219 184 86.601563 "/>
<path style="fill:none;stroke-width:4.25;stroke-linecap:butt;stroke-linejoin:miter;stroke:rgb(58.4%,34.5%,69.8%);stroke-opacity:1;stroke-miterlimit:10;" d="M 192.5 86.601563 C 192.5 110.074219 173.472656 129.101563 150 129.101563 C 126.527344 129.101563 107.5 110.074219 107.5 86.601563 C 107.5 63.128906 126.527344 44.101563 150 44.101563 C 173.472656 44.101563 192.5 63.128906 192.5 86.601563 "/>
<path style="fill:none;stroke-width:4.25;stroke-linecap:butt;stroke-linejoin:miter;stroke:rgb(25.1%,38.8%,84.7%);stroke-opacity:1;stroke-miterlimit:10;" d="M 217 173.207031 C 217 182.59375 209.390625 190.207031 200 190.207031 C 190.609375 190.207031 183 182.59375 183 173.207031 C 183 163.816406 190.609375 156.207031 200 156.207031 C 209.390625 156.207031 217 163.816406 217 173.207031 "/>
<path style="fill:none;stroke-width:4.25;stroke-linecap:butt;stroke-linejoin:miter;stroke:rgb(79.6%,23.5%,20%);stroke-opacity:1;stroke-miterlimit:10;" d="M 225.5 173.207031 C 225.5 187.289063 214.082031 198.707031 200 198.707031 C 185.917969 198.707031 174.5 187.289063 174.5 173.207031 C 174.5 159.121094 185.917969 147.707031 200 147.707031 C 214.082031 147.707031 225.5 159.121094 225.5 173.207031 "/>
<path style="fill:none;stroke-width:4.25;stroke-linecap:butt;stroke-linejoin:miter;stroke:rgb(22%,59.6%,14.9%);stroke-opacity:1;stroke-miterlimit:10;" d="M 234 173.207031 C 234 191.984375 218.777344 207.207031 200 207.207031 C 181.222656 207.207031 166 191.984375 166 173.207031 C 166 154.425781 181.222656 139.207031 200 139.207031 C 218.777344 139.207031 234 154.425781 234 173.207031 "/>
<path style="fill:none;stroke-width:4.25;stroke-linecap:butt;stroke-linejoin:miter;stroke:rgb(58.4%,34.5%,69.8%);stroke-opacity:1;stroke-miterlimit:10;" d="M 242.5 173.207031 C 242.5 196.675781 223.472656 215.707031 200 215.707031 C 176.527344 215.707031 157.5 196.675781 157.5 173.207031 C 157.5 149.734375 176.527344 130.707031 200 130.707031 C 223.472656 130.707031 242.5 149.734375 242.5 173.207031 "/>
<path style="fill:none;stroke-width:4.25;stroke-linecap:butt;stroke-linejoin:miter;stroke:rgb(25.1%,38.8%,84.7%);stroke-opacity:1;stroke-miterlimit:10;" d="M 267 259.808594 C 267 269.195313 259.390625 276.808594 250 276.808594 C 240.609375 276.808594 233 269.195313 233 259.808594 C 233 250.417969 240.609375 242.808594 250 242.808594 C 259.390625 242.808594 267 250.417969 267 259.808594 "/>
<path style="fill:none;stroke-width:4.25;stroke-linecap:butt;stroke-linejoin:miter;stroke:rgb(79.6%,23.5%,20%);stroke-opacity:1;stroke-miterlimit:10;" d="M 275.5 259.808594 C 275.5 273.890625 264.082031 285.308594 250 285.308594 C 235.917969 285.308594 224.5 273.890625 224.5 259.808594 C 224.5 245.722656 235.917969 234.308594 250 234.308594 C 264.082031 234.308594 275.5 245.722656 275.5 259.808594 "/>
<path style="fill:none;stroke-width:4.25;stroke-linecap:butt;stroke-linejoin:miter;stroke:rgb(22%,59.6%,14.9%);stroke-opacity:1;stroke-miterlimit:10;" d="M 284 259.808594 C 284 278.585938 268.777344 293.808594 250 293.808594 C 231.222656 293.808594 216 278.585938 216 259.808594 C 216 241.03125 231.222656 225.808594 250 225.808594 C 268.777344 225.808594 284 241.03125 284 259.808594 "/>
<path style="fill:none;stroke-width:4.25;stroke-linecap:butt;stroke-linejoin:miter;stroke:rgb(58.4%,34.5%,69.8%);stroke-opacity:1;stroke-miterlimit:10;" d="M 292.5 259.808594 C 292.5 283.28125 273.472656 302.308594 250 302.308594 C 226.527344 302.308594 207.5 283.28125 207.5 259.808594 C 207.5 236.335938 226.527344 217.308594 250 217.308594 C 273.472656 217.308594 292.5 236.335938 292.5 259.808594 "/>
<path style="fill:none;stroke-width:4.25;stroke-linecap:butt;stroke-linejoin:miter;stroke:rgb(58.4%,34.5%,69.8%);stroke-opacity:1;stroke-miterlimit:10;" d="M 342.5 346.410156 C 342.5 369.882813 323.472656 388.910156 300 388.910156 C 276.527344 388.910156 257.5 369.882813 257.5 346.410156 C 257.5 322.9375 276.527344 303.910156 300 303.910156 C 323.472656 303.910156 342.5 322.9375 342.5 346.410156 "/>
<path style="fill:none;stroke-width:4.25;stroke-linecap:butt;stroke-linejoin:miter;stroke:rgb(22%,59.6%,14.9%);stroke-opacity:1;stroke-miterlimit:10;" d="M 184 -86.601563 C 184 -67.824219 168.777344 -52.601563 150 -52.601563 C 131.222656 -52.601563 116 -67.824219 116 -86.601563 C 116 -105.378906 131.222656 -120.601563 150 -120.601563 C 168.777344 -120.601563 184 -105.378906 184 -86.601563 "/>
<path style="fill:none;stroke-width:4.25;stroke-linecap:butt;stroke-linejoin:miter;stroke:rgb(58.4%,34.5%,69.8%);stroke-opacity:1;stroke-miterlimit:10;" d="M 192.5 -86.601563 C 192.5 -63.128906 173.472656 -44.101563 150 -44.101563 C 126.527344 -44.101563 107.5 -63.128906 107.5 -86.601563 C 107.5 -110.074219 126.527344 -129.101563 150 -129.101563 C 173.472656 -129.101563 192.5 -110.074219 192.5 -86.601563 "/>
<path style="fill:none;stroke-width:4.25;stroke-linecap:butt;stroke-linejoin:miter;stroke:rgb(25.1%,38.8%,84.7%);stroke-opacity:1;stroke-miterlimit:10;" d="M 217 0 C 217 9.390625 209.390625 17 200 17 C 190.609375 17 183 9.390625 183 0 C 183 -9.390625 190.609375 -17 200 -17 C 209.390625 -17 217 -9.390625 217 0 "/>
<path style="fill:none;stroke-width:4.25;stroke-linecap:butt;stroke-linejoin:miter;stroke:rgb(79.6%,23.5%,20%);stroke-opacity:1;stroke-miterlimit:10;" d="M 225.5 0 C 225.5 14.082031 214.082031 25.5 200 25.5 C 185.917969 25.5 174.5 14.082031 174.5 0 C 174.5 -14.082031 185.917969 -25.5 200 -25.5 C 214.082031 -25.5 225.5 -14.082031 225.5 0 "/>
<path style="fill:none;stroke-width:4.25;stroke-linecap:butt;stroke-linejoin:miter;stroke:rgb(22%,59.6%,14.9%);stroke-opacity:1;stroke-miterlimit:10;" d="M 234 0 C 234 18.777344 218.777344 34 200 34 C 181.222656 34 166 18.777344 166 0 C 166 -18.777344 181.222656 -34 200 -34 C 218.777344 -34 234 -18.777344 234 0 "/>
<path style="fill:none;stroke-width:4.25;stroke-linecap:butt;stroke-linejoin:miter;stroke:rgb(58.4%,34.5%,69.8%);stroke-opacity:1;stroke-miterlimit:10;" d="M 242.5 0 C 242.5 23.472656 223.472656 42.5 200 42.5 C 176.527344 42.5 157.5 23.472656 157.5 0 C 157.5 -23.472656 176.527344 -42.5 200 -42.5 C 223.472656 -42.5 242.5 -23.472656 242.5 0 "/>
<path style="fill:none;stroke-width:4.25;stroke-linecap:butt;stroke-linejoin:miter;stroke:rgb(25.1%,38.8%,84.7%);stroke-opacity:1;stroke-miterlimit:10;" d="M 267 86.601563 C 267 95.992188 259.390625 103.601563 250 103.601563 C 240.609375 103.601563 233 95.992188 233 86.601563 C 233 77.214844 240.609375 69.601563 250 69.601563 C 259.390625 69.601563 267 77.214844 267 86.601563 "/>
<path style="fill:none;stroke-width:4.25;stroke-linecap:butt;stroke-linejoin:miter;stroke:rgb(79.6%,23.5%,20%);stroke-opacity:1;stroke-miterlimit:10;" d="M 275.5 86.601563 C 275.5 100.6875 264.082031 112.101563 250 112.101563 C 235.917969 112.101563 224.5 100.6875 224.5 86.601563 C 224.5 72.519531 235.917969 61.101563 250 61.101563 C 264.082031 61.101563 275.5 72.519531 275.5 86.601563 "/>
<path style="fill:none;stroke-width:4.25;stroke-linecap:butt;stroke-linejoin:miter;stroke:rgb(22%,59.6%,14.9%);stroke-opacity:1;stroke-miterlimit:10;" d="M 284 86.601563 C 284 105.378906 268.777344 120.601563 250 120.601563 C 231.222656 120.601563 216 105.378906 216 86.601563 C 216 67.824219 231.222656 52.601563 250 52.601563 C 268.777344 52.601563 284 67.824219 284 86.601563 "/>
<path style="fill:none;stroke-width:4.25;stroke-linecap:butt;stroke-linejoin:miter;stroke:rgb(58.4%,34.5%,69.8%);stroke-opacity:1;stroke-miterlimit:10;" d="M 292.5 86.601563 C 292.5 110.074219 273.472656 129.101563 250 129.101563 C 226.527344 129.101563 207.5 110.074219 207.5 86.601563 C 207.5 63.128906 226.527344 44.101563 250 44.101563 C 273.472656 44.101563 292.5 63.128906 292.5 86.601563 "/>
<path style="fill:none;stroke-width:4.25;stroke-linecap:butt;stroke-linejoin:miter;stroke:rgb(25.1%,38.8%,84.7%);stroke-opacity:1;stroke-miterlimit:10;" d="M 317 173.207031 C 317 182.59375 309.390625 190.207031 300 190.207031 C 290.609375 190.207031 283 182.59375 283 173.207031 C 283 163.816406 290.609375 156.207031 300 156.207031 C 309.390625 156.207031 317 163.816406 317 173.207031 "/>
<path style="fill:none;stroke-width:4.25;stroke-linecap:butt;stroke-linejoin:miter;stroke:rgb(79.6%,23.5%,20%);stroke-opacity:1;stroke-miterlimit:10;" d="M 325.5 173.207031 C 325.5 187.289063 314.082031 198.707031 300 198.707031 C 285.917969 198.707031 274.5 187.289063 274.5 173.207031 C 274.5 159.121094 285.917969 147.707031 300 147.707031 C 314.082031 147.707031 325.5 159.121094 325.5 173.207031 "/>
<path style="fill:none;stroke-width:4.25;stroke-linecap:butt;stroke-linejoin:miter;stroke:rgb(22%,59.6%,14.9%);stroke-opacity:1;stroke-miterlimit:10;" d="M 334 173.207031 C 334 191.984375 318.777344 207.207031 300 207.207031 C 281.222656 207.207031 266 191.984375 266 173.207031 C 266 154.425781 281.222656 139.207031 300 139.207031 C 318.777344 139.207031 334 154.425781 334 173.207031 "/>
<path style="fill:none;stroke-width:4.25;stroke-linecap:butt;stroke-linejoin:miter;stroke:rgb(58.4%,34.5%,69.8%);stroke-opacity:1;stroke-miterlimit:10;" d="M 342.5 173.207031 C 342.5 196.675781 323.472656 215.707031 300 215.707031 C 276.527344 215.707031 257.5 196.675781 257.5 173.207031 C 257.5 149.734375 276.527344 130.707031 300 130.707031 C 323.472656 130.707031 342.5 149.734375 342.5 173.207031 "/>
<path style="fill:none;stroke-width:4.25;stroke-linecap:butt;stroke-linejoin:miter;stroke:rgb(25.1%,38.8%,84.7%);stroke-opacity:1;stroke-miterlimit:10;" d="M 367 259.808594 C 367 269.195313 359.390625 276.808594 350 276.808594 C 340.609375 276.808594 333 269.195313 333 259.808594 C 333 250.417969 340.609375 242.808594 350 242.808594 C 359.390625 242.808594 367 250.417969 367 259.808594 "/>
<path style="fill:none;stroke-width:4.25;stroke-linecap:butt;stroke-linejoin:miter;stroke:rgb(79.6%,23.5%,20%);stroke-opacity:1;stroke-miterlimit:10;" d="M 375.5 259.808594 C 375.5 273.890625 364.082031 285.308594 350 285.308594 C 335.917969 285.308594 324.5 273.890625 324.5 259.808594 C 324.5 245.722656 335.917969 234.308594 350 234.308594 C 364.082031 234.308594 375.5 245.722656 375.5 259.808594 "/>
<path style="fill:none;stroke-width:4.25;stroke-linecap:butt;stroke-linejoin:miter;stroke:rgb(22%,59.6%,14.9%);stroke-opacity:1;stroke-miterlimit:10;" d="M 384 259.808594 C 384 278.585938 368.777344 293.808594 350 293.808594 C 331.222656 293.808594 316 278.585938 316 259.808594 C 316 241.03125 331.222656 225.808594 350 225.808594 C 368.777344 225.808594 384 241.03125 384 259.808594 "/>
<path style="fill:none;stroke-width:4.25;stroke-linecap:butt;stroke-linejoin:miter;stroke:rgb(58.4%,34.5%,69.8%);stroke-opacity:1;stroke-miterlimit:10;" d="M 392.5 259.808594 C 392.5 283.28125 373.472656 302.308594 350 302.308594 C 326.527344 302.308594 307.5 283.28125 307.5 259.808594 C 307.5 236.335938 326.527344 217.308594 350 217.308594 C 373.472656 217.308594 392.5 236.335938 392.5 259.808594 "/>
<path style="fill:none;stroke-width:4.25;stroke-linecap:butt;stroke-linejoin:miter;stroke:rgb(58.4%,34.5%,69.8%);stroke-opacity:1;stroke-miterlimit:10;" d="M 442.5 346.410156 C 442.5 369.882813 423.472656 388.910156 400 388.910156 C 376.527344 388.910156 357.5 369.882813 357.5 346.410156 C 357.5 322.9375 376.527344 303.910156 400 303.910156 C 423.472656 303.910156 442.5 322.9375 442.5 346.410156 "/>
<path style="fill:none;stroke-width:4.25;stroke-linecap:butt;stroke-linejoin:miter;stroke:rgb(22%,59.6%,14.9%);stroke-opacity:1;stroke-miterlimit:10;" d="M 284 -86.601563 C 284 -67.824219 268.777344 -52.601563 250 -52.601563 C 231.222656 -52.601563 216 -67.824219 216 -86.601563 C 216 -105.378906 231.222656 -120.601563 250 -120.601563 C 268.777344 -120.601563 284 -105.378906 284 -86.601563 "/>
<path style="fill:none;stroke-width:4.25;stroke-linecap:butt;stroke-linejoin:miter;stroke:rgb(58.4%,34.5%,69.8%);stroke-opacity:1;stroke-miterlimit:10;" d="M 292.5 -86.601563 C 292.5 -63.128906 273.472656 -44.101563 250 -44.101563 C 226.527344 -44.101563 207.5 -63.128906 207.5 -86.601563 C 207.5 -110.074219 226.527344 -129.101563 250 -129.101563 C 273.472656 -129.101563 292.5 -110.074219 292.5 -86.601563 "/>
<path style="fill:none;stroke-width:4.25;stroke-linecap:butt;stroke-linejoin:miter;stroke:rgb(25.1%,38.8%,84.7%);stroke-opacity:1;stroke-miterlimit:10;" d="M 317 0 C 317 9.390625 309.390625 17 300 17 C 290.609375 17 283 9.390625 283 0 C 283 -9.390625 290.609375 -17 300 -17 C 309.390625 -17 317 -9.390625 317 0 "/>
<path style="fill:none;stroke-width:4.25;stroke-linecap:butt;stroke-linejoin:miter;stroke:rgb(79.6%,23.5%,20%);stroke-opacity:1;stroke-miterlimit:10;" d="M 325.5 0 C 325.5 14.082031 314.082031 25.5 300 25.5 C 285.917969 25.5 274.5 14.082031 274.5 0 C 274.5 -14.082031 285.917969 -25.5 300 -25.5 C 314.082031 -25.5 325.5 -14.082031 325.5 0 "/>
<path style="fill:none;stroke-width:4.25;stroke-linecap:butt;stroke-linejoin:miter;stroke:rgb(22%,59.6%,14.9%);stroke-opacity:1;stroke-miterlimit:10;" d="M 334 0 C 334 18.777344 318.777344 34 300 34 C 281.222656 34 266 18.777344 266 0 C 266 -18.777344 281.222656 -34 300 -34 C 318.777344 -34 334 -18.777344 334 0 "/>
<path style="fill:none;stroke-width:4.25;stroke-linecap:butt;stroke-linejoin:miter;stroke:rgb(58.4%,34.5%,69.8%);stroke-opacity:1;stroke-miterlimit:10;" d="M 342.5 0 C 342.5 23.472656 323.472656 42.5 300 42.5 C 276.527344 42.5 257.5 23.472656 257.5 0 C 257.5 -23.472656 276.527344 -42.5 300 -42.5 C 323.472656 -42.5 342.5 -23.472656 342.5 0 "/>
<path style="fill:none;stroke-width:4.25;stroke-linecap:butt;stroke-linejoin:miter;stroke:rgb(25.1%,38.8%,84.7%);stroke-opacity:1;stroke-miterlimit:10;" d="M 367 86.601563 C 367 95.992188 359.390625 103.601563 350 103.601563 C 340.609375 103.601563 333 95.992188 333 86.601563 C 333 77.214844 340.609375 69.601563 350 69.601563 C 359.390625 69.601563 367 77.214844 367 86.601563 "/>
<path style="fill:none;stroke-width:4.25;stroke-linecap:butt;stroke-linejoin:miter;stroke:rgb(79.6%,23.5%,20%);stroke-opacity:1;stroke-miterlimit:10;" d="M 375.5 86.601563 C 375.5 100.6875 364.082031 112.101563 350 112.101563 C 335.917969 112.101563 324.5 100.6875 324.5 86.601563 C 324.5 72.519531 335.917969 61.101563 350 61.101563 C 364.082031 61.101563 375.5 72.519531 375.5 86.601563 "/>
<path style="fill:none;stroke-width:4.25;stroke-linecap:butt;stroke-linejoin:miter;stroke:rgb(22%,59.6%,14.9%);stroke-opacity:1;stroke-miterlimit:10;" d="M 384 86.601563 C 384 105.378906 368.777344 120.601563 350 120.601563 C 331.222656 120.601563 316 105.378906 316 86.601563 C 316 67.824219 331.222656 52.601563 350 52.601563 C 368.777344 52.601563 384 67.824219 384 86.601563 "/>
<path style="fill:none;stroke-width:4.25;stroke-linecap:butt;stroke-linejoin:miter;stroke:rgb(58.4%,34.5%,69.8%);stroke-opacity:1;stroke-miterlimit:10;" d="M 392.5 86.601563 C 392.5 110.074219 373.472656 129.101563 350 129.101563 C 326.527344 129.101563 307.5 110.074219 307.5 86.601563 C 307.5 63.128906 326.527344 44.101563 350 44.101563 C 373.472656 44.101563 392.5 63.128906 392.5 86.601563 "/>
<path style="fill:none;stroke-width:4.25;stroke-linecap:butt;stroke-linejoin:miter;stroke:rgb(25.1%,38.8%,84.7%);stroke-opacity:1;stroke-miterlimit:10;" d="M 417 173.207031 C 417 182.59375 409.390625 190.207031 400 190.207031 C 390.609375 190.207031 383 182.59375 383 173.207031 C 383 163.816406 390.609375 156.207031 400 156.207031 C 409.390625 156.207031 417 163.816406 417 173.207031 "/>
<path style="fill:none;stroke-width:4.25;stroke-linecap:butt;stroke-linejoin:miter;stroke:rgb(79.6%,23.5%,20%);stroke-opacity:1;stroke-miterlimit:10;" d="M 425.5 173.207031 C 425.5 187.289063 414.082031 198.707031 400 198.707031 C 385.917969 198.707031 374.5 187.289063 374.5 173.207031 C 374.5 159.121094 385.917969 147.707031 400 147.707031 C 414.082031 147.707031 425.5 159.121094 425.5 173.207031 "/>
<path style="fill:none;stroke-width:4.25;stroke-linecap:butt;stroke-linejoin:miter;stroke:rgb(22%,59.6%,14.9%);stroke-opacity:1;stroke-miterlimit:10;" d="M 434 173.207031 C 434 191.984375 418.777344 207.207031 400 207.207031 C 381.222656 207.207031 366 191.984375 366 173.207031 C 366 154.425781 381.222656 139.207031 400 139.207031 C 418.777344 139.207031 434 154.425781 434 173.207031 "/>
<path style="fill:none;stroke-width:4.25;stroke-linecap:butt;stroke-linejoin:miter;stroke:rgb(58.4%,34.5%,69.8%);stroke-opacity:1;stroke-miterlimit:10;" d="M 442.5 173.207031 C 442.5 196.675781 423.472656 215.707031 400 215.707031 C 376.527344 215.707031 357.5 196.675781 357.5 173.207031 C 357.5 149.734375 376.527344 130.707031 400 130.707031 C 423.472656 130.707031 442.5 149.734375 442.5 173.207031 "/>
<path style="fill:none;stroke-width:4.25;stroke-linecap:butt;stroke-linejoin:miter;stroke:rgb(25.1%,38.8%,84.7%);stroke-opacity:1;stroke-miterlimit:10;" d="M 467 259.808594 C 467 269.195313 459.390625 276.808594 450 276.808594 C 440.609375 276.808594 433 269.195313 433 259.808594 C 433 250.417969 440.609375 242.808594 450 242.808594 C 459.390625 242.808594 467 250.417969 467 259.808594 "/>
<path style="fill:none;stroke-width:4.25;stroke-linecap:butt;stroke-linejoin:miter;stroke:rgb(79.6%,23.5%,20%);stroke-opacity:1;stroke-miterlimit:10;" d="M 475.5 259.808594 C 475.5 273.890625 464.082031 285.308594 450 285.308594 C 435.917969 285.308594 424.5 273.890625 424.5 259.808594 C 424.5 245.722656 435.917969 234.308594 450 234.308594 C 464.082031 234.308594 475.5 245.722656 475.5 259.808594 "/>
<path style="fill:none;stroke-width:4.25;stroke-linecap:butt;stroke-linejoin:miter;stroke:rgb(22%,59.6%,14.9%);stroke-opacity:1;stroke-miterlimit:10;" d="M 484 259.808594 C 484 278.585938 468.777344 293.808594 450 293.808594 C 431.222656 293.808594 416 278.585938 416 259.808594 C 416 241.03125 431.222656 225.808594 450 225.808594 C 468.777344 225.808594 484 241.03125 484 259.808594 "/>
<path style="fill:none;stroke-width:4.25;stroke-linecap:butt;stroke-linejoin:miter;stroke:rgb(58.4%,34.5%,69.8%);stroke-opacity:1;stroke-miterlimit:10;" d="M 492.5 259.808594 C 492.5 283.28125 473.472656 302.308594 450 302.308594 C 426.527344 302.308594 407.5 283.28125 407.5 259.808594 C 407.5 236.335938 426.527344 217.308594 450 217.308594 C 473.472656 217.308594 492.5 236.335938 492.5 259.808594 "/>
<path style="fill:none;stroke-width:4.25;stroke-linecap:butt;stroke-linejoin:miter;stroke:rgb(58.4%,34.5%,69.8%);stroke-opacity:1;stroke-miterlimit:10;" d="M 542.5 346.410156 C 542.5 369.882813 523.472656 388.910156 500 388.910156 C 476.527344 388.910156 457.5 369.882813 457.5 346.410156 C 457.5 322.9375 476.527344 303.910156 500 303.910156 C 523.472656 303.910156 542.5 322.9375 542.5 346.410156 "/>
<path style="fill:none;stroke-width:4.25;stroke-linecap:butt;stroke-linejoin:miter;stroke:rgb(22%,59.6%,14.9%);stroke-opacity:1;stroke-miterlimit:10;" d="M 384 -86.601563 C 384 -67.824219 368.777344 -52.601563 350 -52.601563 C 331.222656 -52.601563 316 -67.824219 316 -86.601563 C 316 -105.378906 331.222656 -120.601563 350 -120.601563 C 368.777344 -120.601563 384 -105.378906 384 -86.601563 "/>
<path style="fill:none;stroke-width:4.25;stroke-linecap:butt;stroke-linejoin:miter;stroke:rgb(58.4%,34.5%,69.8%);stroke-opacity:1;stroke-miterlimit:10;" d="M 392.5 -86.601563 C 392.5 -63.128906 373.472656 -44.101563 350 -44.101563 C 326.527344 -44.101563 307.5 -63.128906 307.5 -86.601563 C 307.5 -110.074219 326.527344 -129.101563 350 -129.101563 C 373.472656 -129.101563 392.5 -110.074219 392.5 -86.601563 "/>
<path style="fill:none;stroke-width:4.25;stroke-linecap:butt;stroke-linejoin:miter;stroke:rgb(25.1%,38.8%,84.7%);stroke-opacity:1;stroke-miterlimit:10;" d="M 417 0 C 417 9.390625 409.390625 17 400 17 C 390.609375 17 383 9.390625 383 0 C 383 -9.390625 390.609375 -17 400 -17 C 409.390625 -17 417 -9.390625 417 0 "/>
<path style="fill:none;stroke-width:4.25;stroke-linecap:butt;stroke-linejoin:miter;stroke:rgb(79.6%,23.5%,20%);stroke-opacity:1;stroke-miterlimit:10;" d="M 425.5 0 C 425.5 14.082031 414.082031 25.5 400 25.5 C 385.917969 25.5 374.5 14.082031 374.5 0 C 374.5 -14.082031 385.917969 -25.5 400 -25.5 C 414.082031 -25.5 425.5 -14.082031 425.5 0 "/>
<path style="fill:none;stroke-width:4.25;stroke-linecap:butt;stroke-linejoin:miter;stroke:rgb(22%,59.6%,14.9%);stroke-opacity:1;stroke-miterlimit:10;" d="M 434 0 C 434 18.777344 418.777344 34 400 34 C 381.222656 34 366 18.777344 366 0 C 366 -18.777344 381.222656 -34 400 -34 C 418.777344 -34 434 -18.777344 434 0 "/>
<path style="fill:none;stroke-width:4.25;stroke-linecap:butt;stroke-linejoin:miter;stroke:rgb(58.4%,34.5%,69.8%);stroke-opacity:1;stroke-miterlimit:10;" d="M 442.5 0 C 442.5 23.472656 423.472656 42.5 400 42.5 C 376.527344 42.5 357.5 23.472656 357.5 0 C 357.5 -23.472656 376.527344 -42.5 400 -42.5 C 423.472656 -42.5 442.5 -23.472656 442.5 0 "/>
<path style="fill:none;stroke-width:4.25;stroke-linecap:butt;stroke-linejoin:miter;stroke:rgb(25.1%,38.8%,84.7%);stroke-opacity:1;stroke-miterlimit:10;" d="M 467 86.601563 C 467 95.992188 459.390625 103.601563 450 103.601563 C 440.609375 103.601563 433 95.992188 433 86.601563 C 433 77.214844 440.609375 69.601563 450 69.601563 C 459.390625 69.601563 467 77.214844 467 86.601563 "/>
<path style="fill:none;stroke-width:4.25;stroke-linecap:butt;stroke-linejoin:miter;stroke:rgb(79.6%,23.5%,20%);stroke-opacity:1;stroke-miterlimit:10;" d="M 475.5 86.601563 C 475.5 100.6875 464.082031 112.101563 450 112.101563 C 435.917969 112.101563 424.5 100.6875 424.5 86.601563 C 424.5 72.519531 435.917969 61.101563 450 61.101563 C 464.082031 61.101563 475.5 72.519531 475.5 86.601563 "/>
<path style="fill:none;stroke-width:4.25;stroke-linecap:butt;stroke-linejoin:miter;stroke:rgb(22%,59.6%,14.9%);stroke-opacity:1;stroke-miterlimit:10;" d="M 484 86.601563 C 484 105.378906 468.777344 120.601563 450 120.601563 C 431.222656 120.601563 416 105.378906 416 86.601563 C 416 67.824219 431.222656 52.601563 450 52.601563 C 468.777344 52.601563 484 67.824219 484 86.601563 "/>
<path style="fill:none;stroke-width:4.25;stroke-linecap:butt;stroke-linejoin:miter;stroke:rgb(58.4%,34.5%,69.8%);stroke-opacity:1;stroke-miterlimit:10;" d="M 492.5 86.601563 C 492.5 110.074219 473.472656 129.101563 450 129.101563 C 426.527344 129.101563 407.5 110.074219 407.5 86.601563 C 407.5 63.128906 426.527344 44.101563 450 44.101563 C 473.472656 44.101563 492.5 63.128906 492.5 86.601563 "/>
<path style="fill:none;stroke-width:4.25;stroke-linecap:butt;stroke-linejoin:miter;stroke:rgb(25.1%,38.8%,84.7%);stroke-opacity:1;stroke-miterlimit:10;" d="M 517 173.207031 C 517 182.59375 509.390625 190.207031 500 190.207031 C 490.609375 190.207031 483 182.59375 483 173.207031 C 483 163.816406 490.609375 156.207031 500 156.207031 C 509.390625 156.207031 517 163.816406 517 173.207031 "/>
<path style="fill:none;stroke-width:4.25;stroke-linecap:butt;stroke-linejoin:miter;stroke:rgb(79.6%,23.5%,20%);stroke-opacity:1;stroke-miterlimit:10;" d="M 525.5 173.207031 C 525.5 187.289063 514.082031 198.707031 500 198.707031 C 485.917969 198.707031 474.5 187.289063 474.5 173.207031 C 474.5 159.121094 485.917969 147.707031 500 147.707031 C 514.082031 147.707031 525.5 159.121094 525.5 173.207031 "/>
<path style="fill:none;stroke-width:4.25;stroke-linecap:butt;stroke-linejoin:miter;stroke:rgb(22%,59.6%,14.9%);stroke-opacity:1;stroke-miterlimit:10;" d="M 534 173.207031 C 534 191.984375 518.777344 207.207031 500 207.207031 C 481.222656 207.207031 466 191.984375 466 173.207031 C 466 154.425781 481.222656 139.207031 500 139.207031 C 518.777344 139.207031 534 154.425781 534 173.207031 "/>
<path style="fill:none;stroke-width:4.25;stroke-linecap:butt;stroke-linejoin:miter;stroke:rgb(58.4%,34.5%,69.8%);stroke-opacity:1;stroke-miterlimit:10;" d="M 542.5 173.207031 C 542.5 196.675781 523.472656 215.707031 500 215.707031 C 476.527344 215.707031 457.5 196.675781 457.5 173.207031 C 457.5 149.734375 476.527344 130.707031 500 130.707031 C 523.472656 130.707031 542.5 149.734375 542.5 173.207031 "/>
<path style="fill:none;stroke-width:4.25;stroke-linecap:butt;stroke-linejoin:miter;stroke:rgb(58.4%,34.5%,69.8%);stroke-opacity:1;stroke-miterlimit:10;" d="M 592.5 259.808594 C 592.5 283.28125 573.472656 302.308594 550 302.308594 C 526.527344 302.308594 507.5 283.28125 507.5 259.808594 C 507.5 236.335938 526.527344 217.308594 550 217.308594 C 573.472656 217.308594 592.5 236.335938 592.5 259.808594 "/>
<path style="fill:none;stroke-width:4.25;stroke-linecap:butt;stroke-linejoin:miter;stroke:rgb(22%,59.6%,14.9%);stroke-opacity:1;stroke-miterlimit:10;" d="M 484 -86.601563 C 484 -67.824219 468.777344 -52.601563 450 -52.601563 C 431.222656 -52.601563 416 -67.824219 416 -86.601563 C 416 -105.378906 431.222656 -120.601563 450 -120.601563 C 468.777344 -120.601563 484 -105.378906 484 -86.601563 "/>
<path style="fill:none;stroke-width:4.25;stroke-linecap:butt;stroke-linejoin:miter;stroke:rgb(58.4%,34.5%,69.8%);stroke-opacity:1;stroke-miterlimit:10;" d="M 492.5 -86.601563 C 492.5 -63.128906 473.472656 -44.101563 450 -44.101563 C 426.527344 -44.101563 407.5 -63.128906 407.5 -86.601563 C 407.5 -110.074219 426.527344 -129.101563 450 -129.101563 C 473.472656 -129.101563 492.5 -110.074219 492.5 -86.601563 "/>
<path style="fill:none;stroke-width:4.25;stroke-linecap:butt;stroke-linejoin:miter;stroke:rgb(25.1%,38.8%,84.7%);stroke-opacity:1;stroke-miterlimit:10;" d="M 517 0 C 517 9.390625 509.390625 17 500 17 C 490.609375 17 483 9.390625 483 0 C 483 -9.390625 490.609375 -17 500 -17 C 509.390625 -17 517 -9.390625 517 0 "/>
<path style="fill:none;stroke-width:4.25;stroke-linecap:butt;stroke-linejoin:miter;stroke:rgb(79.6%,23.5%,20%);stroke-opacity:1;stroke-miterlimit:10;" d="M 525.5 0 C 525.5 14.082031 514.082031 25.5 500 25.5 C 485.917969 25.5 474.5 14.082031 474.5 0 C 474.5 -14.082031 485.917969 -25.5 500 -25.5 C 514.082031 -25.5 525.5 -14.082031 525.5 0 "/>
<path style="fill:none;stroke-width:4.25;stroke-linecap:butt;stroke-linejoin:miter;stroke:rgb(22%,59.6%,14.9%);stroke-opacity:1;stroke-miterlimit:10;" d="M 534 0 C 534 18.777344 518.777344 34 500 34 C 481.222656 34 466 18.777344 466 0 C 466 -18.777344 481.222656 -34 500 -34 C 518.777344 -34 534 -18.777344 534 0 "/>
<path style="fill:none;stroke-width:4.25;stroke-linecap:butt;stroke-linejoin:miter;stroke:rgb(58.4%,34.5%,69.8%);stroke-opacity:1;stroke-miterlimit:10;" d="M 542.5 0 C 542.5 23.472656 523.472656 42.5 500 42.5 C 476.527344 42.5 457.5 23.472656 457.5 0 C 457.5 -23.472656 476.527344 -42.5 500 -42.5 C 523.472656 -42.5 542.5 -23.472656 542.5 0 "/>
<path style="fill:none;stroke-width:4.25;stroke-linecap:butt;stroke-linejoin:miter;stroke:rgb(58.4%,34.5%,69.8%);stroke-opacity:1;stroke-miterlimit:10;" d="M 592.5 86.601563 C 592.5 110.074219 573.472656 129.101563 550 129.101563 C 526.527344 129.101563 507.5 110.074219 507.5 86.601563 C 507.5 63.128906 526.527344 44.101563 550 44.101563 C 573.472656 44.101563 592.5 63.128906 592.5 86.601563 "/>
<path style="fill:none;stroke-width:4.25;stroke-linecap:butt;stroke-linejoin:miter;stroke:rgb(58.4%,34.5%,69.8%);stroke-opacity:1;stroke-miterlimit:10;" d="M 592.5 -86.601563 C 592.5 -63.128906 573.472656 -44.101563 550 -44.101563 C 526.527344 -44.101563 507.5 -63.128906 507.5 -86.601563 C 507.5 -110.074219 526.527344 -129.101563 550 -129.101563 C 573.472656 -129.101563 592.5 -110.074219 592.5 -86.601563 "/>
</g>
</svg>
